<svg xmlns="http://www.w3.org/2000/svg" viewBox="0 0 256 256" role="img" aria-label="Бетономешалка">
  <defs>
    <linearGradient id="cab" x1="0" y1="0" x2="1" y2="1">
      <stop offset="0" stop-color="#4fb3ff"/>
      <stop offset="1" stop-color="#1e88e5"/>
    </linearGradient>
    <linearGradient id="drum" x1="0" y1="0" x2="1" y2="1">
      <stop offset="0" stop-color="#ffd54f"/>
      <stop offset="1" stop-color="#ffb300"/>
    </linearGradient>
    <linearGradient id="stripe1" x1="0" y1="0" x2="1" y2="1">
      <stop offset="0" stop-color="#ef5350"/>
      <stop offset="1" stop-color="#c62828"/>
    </linearGradient>
    <linearGradient id="stripe2" x1="0" y1="0" x2="1" y2="1">
      <stop offset="0" stop-color="#66bb6a"/>
      <stop offset="1" stop-color="#2e7d32"/>
    </linearGradient>
  </defs>

  <rect width="256" height="256" fill="none"/>

  <!-- шасси -->
  <rect x="34" y="156" width="132" height="22" rx="8" fill="#37474f"/>
  <rect x="28" y="146" width="28" height="36" rx="6" fill="url(#cab)"/>
  <rect x="54" y="136" width="62" height="40" rx="8" fill="url(#cab)"/>
  <rect x="62" y="143" width="26" height="14" rx="3" fill="#bbdefb"/>

  <!-- барабан -->
  <g transform="translate(128 116)">
    <circle r="48" fill="url(#drum)" stroke="#263238" stroke-width="4"/>
    <path d="M-36 -32 L-8 -46 L22 -12 L-6 2 Z" fill="url(#stripe1)"/>
    <path d="M-4 -46 L24 -32 L-4 2 L-32 -12 Z" fill="url(#stripe2)"/>
    <path d="M24 -30 L44 -6 L14 24 L-4 0 Z" fill="#3949ab"/>
    <circle r="8" fill="#263238"/>
  </g>

  <!-- крепление -->
  <path d="M114 144 L156 130 L166 152 L126 166 Z" fill="#546e7a"/>
  <path d="M154 164 L180 174 L172 188 L146 178 Z" fill="#455a64"/>

  <!-- носик -->
  <path d="M178 178 L214 188 L208 206 L170 194 Z" fill="#607d8b"/>

  <!-- колеса -->
  <g>
    <circle cx="64" cy="188" r="20" fill="#263238"/>
    <circle cx="64" cy="188" r="10" fill="#90a4ae"/>
    <circle cx="150" cy="188" r="20" fill="#263238"/>
    <circle cx="150" cy="188" r="10" fill="#90a4ae"/>
    <circle cx="208" cy="208" r="12" fill="#263238"/>
    <circle cx="208" cy="208" r="5" fill="#90a4ae"/>
  </g>

  <!-- тень -->
  <ellipse cx="124" cy="224" rx="92" ry="10" fill="#000" opacity="0.12"/>
</svg>
